<svg xmlns="http://www.w3.org/2000/svg" width="470" height="120" viewBox="0 0 470 120">
  <g transform="translate(15.33 85.74)">
    <path d="M41.05-14.41L41.05-1.33Q35.00 0.85 27.09 0.85L27.09 0.85Q19.30 0.85 13.66-2.12Q8.02-5.10 5.05-10.59Q2.07-16.07 2.07-23.25L2.07-23.25Q2.07-30.96 5.40-36.97Q8.73-42.99 14.82-46.27Q20.90-49.55 28.82-49.55L28.82-49.55Q35.14-49.55 41.05-48.02L41.05-48.02L41.05-34.46Q39.01-35.68 36.19-36.36Q33.37-37.04 30.48-37.04L30.48-37.04Q24.50-37.04 21.05-33.61Q17.60-30.18 17.60-24.30L17.60-24.30Q17.60-18.45 21.05-15.07Q24.50-11.69 30.28-11.69L30.28-11.69Q35.62-11.69 41.05-14.41L41.05-14.41ZM61.78 0L47.31 0L47.31-51.52L61.78-51.52L61.78 0ZM84.08-44.18L84.08-44.18Q84.08-41.12 81.85-39.22Q79.63-37.31 75.99-37.31L75.99-37.31Q72.45-37.31 70.19-39.29Q67.93-41.26 67.93-44.18L67.93-44.18Q67.93-47.17 70.13-49.02Q72.32-50.87 75.99-50.87L75.99-50.87Q79.63-50.87 81.85-49.02Q84.08-47.17 84.08-44.18ZM83.23 0L68.75 0L68.75-34.80L83.23-34.80L83.23 0ZM124.18-13.29L102.67-13.29Q103.04-11.04 105.25-9.77Q107.46-8.50 111.09-8.50L111.09-8.50Q116.16-8.50 120.68-10.43L120.68-10.43L120.68-1.26Q115.41 0.85 107.90 0.85L107.90 0.85Q98.79 0.85 93.73-3.81Q88.67-8.46 88.67-16.62L88.67-16.62Q88.67-22.23 90.89-26.51Q93.12-30.79 97.48-33.22Q101.85-35.65 107.12-35.65L107.12-35.65Q112.52-35.65 116.36-33.54Q120.20-31.44 122.19-27.63Q124.18-23.82 124.18-18.73L124.18-18.73L124.18-13.29ZM102.60-20.87L111.37-20.87Q111.37-26.88 107.05-26.88L107.05-26.88Q105.25-26.88 104.03-25.23Q102.80-23.59 102.60-20.87L102.60-20.87ZM166.22 0L151.74 0L151.74-19.00Q151.74-22.23 150.77-23.64Q149.80-25.05 147.63-25.05L147.63-25.05Q145.76-25.05 144.71-23.59Q143.65-22.12 143.65-19.85L143.65-19.85L143.65 0L129.17 0L129.17-34.80L143.65-34.80L143.65-29.36L143.79-29.36Q145.52-32.35 148.44-34.00Q151.37-35.65 154.80-35.65L154.80-35.65Q166.22-35.65 166.22-21.24L166.22-21.24L166.22 0ZM197.25-10.50L197.25-0.48Q196.26 0 194.02 0.42Q191.77 0.85 188.61 0.85L188.61 0.85Q182.56 0.85 179.15-2.48Q175.73-5.81 175.73-11.96L175.73-11.96L175.73-24.77L170.26-24.77L170.26-34.80L175.73-34.80L175.73-41.63L190.01-45.57L190.01-34.80L197.25-34.80L197.25-24.77L190.01-24.77L190.01-14.34Q190.01-9.75 193.64-9.75L193.64-9.75Q195.34-9.75 197.25-10.50L197.25-10.50ZM241.02-18.45L241.02-18.45Q241.02-12.74 239.13-8.34Q237.24-3.94 233.78-1.55Q230.31 0.85 225.93 0.85L225.93 0.85Q222.56 0.85 220.17-0.39Q217.77-1.63 216.38-3.60L216.38-3.60L216.24-3.60L216.24 0L201.77 0L201.77-51.52L216.24-51.52L216.24-30.08L216.38-30.08Q218.08-32.66 220.98-34.15Q223.89-35.65 227.39-35.65L227.39-35.65Q233.98-35.65 237.50-31.27Q241.02-26.88 241.02-18.45ZM226.34-18.01L226.34-18.01Q226.34-21.51 224.99-23.28Q223.65-25.05 221.14-25.05L221.14-25.05Q218.93-25.05 217.45-23.19Q215.97-21.34 215.97-18.39L215.97-18.39L215.97-16.28Q215.97-13.29 217.30-11.52Q218.62-9.75 220.86-9.75L220.86-9.75Q223.48-9.75 224.91-11.91Q226.34-14.07 226.34-18.01ZM278.98 0L265.76 0L265.76-5.30L265.62-5.30Q262.16 0.85 255.02 0.85L255.02 0.85Q250.09 0.85 247.30-2.07Q244.52-5.00 244.52-9.89L244.52-9.89Q244.52-20.15 257.13-21.78L257.13-21.78L265.76-22.91Q265.76-24.60 264.23-25.69Q262.70-26.78 260.12-26.78L260.12-26.78Q254.27-26.78 247.78-23.45L247.78-23.45L247.78-32.86Q250.60-34.09 254.85-34.87Q259.10-35.65 262.12-35.65L262.12-35.65Q270.99-35.65 274.98-31.86Q278.98-28.07 278.98-19.20L278.98-19.20L278.98 0ZM257.19-11.83L257.19-11.83Q257.19-10.40 258.09-9.48Q258.99-8.56 260.66-8.56L260.66-8.56Q262.94-8.56 264.35-10.26Q265.76-11.96 265.76-14.61L265.76-14.61L265.76-15.94L260.86-15.26Q257.19-14.65 257.19-11.83ZM313.78-11.55L313.78-11.55Q313.78-5.64 309.27-2.40Q304.77 0.85 296.72 0.85L296.72 0.85Q294.37 0.85 290.92 0.37Q287.47-0.10 285.30-0.78L285.30-0.78L285.30-10.94Q291.72-8.09 296.04-8.09L296.04-8.09Q300.29-8.09 300.29-10.30L300.29-10.30Q300.29-11.21 299.30-11.81Q298.31-12.40 294.13-13.80L294.13-13.80Q289.51-15.26 287.41-17.67Q285.30-20.08 285.30-23.96L285.30-23.96Q285.30-29.36 289.60-32.51Q293.90-35.65 301.68-35.65L301.68-35.65Q306.23-35.65 311.33-34.32L311.33-34.32L311.33-24.57Q309.19-25.49 306.64-26.10Q304.09-26.71 302.36-26.71L302.36-26.71Q300.93-26.71 300.08-26.24Q299.23-25.76 299.23-24.91L299.23-24.91Q299.23-23.92 300.15-23.31Q301.07-22.70 303.82-21.85L303.82-21.85Q309.16-20.29 311.47-17.84Q313.78-15.39 313.78-11.55ZM353.10-13.29L331.59-13.29Q331.96-11.04 334.17-9.77Q336.38-8.50 340.01-8.50L340.01-8.50Q345.08-8.50 349.60-10.43L349.60-10.43L349.60-1.26Q344.33 0.85 336.82 0.85L336.82 0.85Q327.71 0.85 322.65-3.81Q317.58-8.46 317.58-16.62L317.58-16.62Q317.58-22.23 319.81-26.51Q322.04-30.79 326.40-33.22Q330.77-35.65 336.04-35.65L336.04-35.65Q341.44-35.65 345.28-33.54Q349.12-31.44 351.11-27.63Q353.10-23.82 353.10-18.73L353.10-18.73L353.10-13.29ZM331.52-20.87L340.29-20.87Q340.29-26.88 335.97-26.88L335.97-26.88Q334.17-26.88 332.94-25.23Q331.72-23.59 331.52-20.87L331.52-20.87ZM373.83-6.05L373.83-6.05Q373.83-2.96 371.65-1.05Q369.48 0.85 365.64 0.85L365.64 0.85Q362.14 0.85 359.91-1.14Q357.69-3.13 357.69-6.05L357.69-6.05Q357.69-9.04 359.88-10.89Q362.07-12.74 365.77-12.74L365.77-12.74Q369.38-12.74 371.60-10.89Q373.83-9.04 373.83-6.05Z" fill="#000000"/>
    <path d="M407.17-51.59L407.17-40.99Q404.92-41.77 402.99-41.77L402.99-41.77Q400.57-41.77 399.42-40.53Q398.26-39.29 398.26-37.18L398.26-37.18L398.26-34.80L406.32-34.80L406.32-24.77L398.26-24.77L398.26 0L383.79 0L383.79-24.77L377.94-24.77L377.94-34.80L383.79-34.80L383.79-37.99Q383.79-42.24 385.76-45.49Q387.73-48.73 391.48-50.53Q395.24-52.34 400.61-52.34L400.61-52.34Q404.48-52.34 407.17-51.59L407.17-51.59ZM436.53-35.00L436.53-22.40Q435.71-22.77 434.32-23.08Q432.93-23.38 432.01-23.38L432.01-23.38Q424.84-23.38 424.84-15.09L424.84-15.09L424.84 0L410.36 0L410.36-34.80L424.84-34.80L424.84-28.68L424.97-28.68Q426.30-31.98 428.75-33.70Q431.19-35.41 434.46-35.41L434.46-35.41Q435.65-35.41 436.53-35.00L436.53-35.00Z" fill="#5B4FE9"/>
  </g>
</svg>
